<svg width="20" height="20" viewBox="0 0 20 20" fill="none" xmlns="http://www.w3.org/2000/svg">
<path d="M19.9969 12.0007C18.154 12.368 18.0937 12.368 18.0937 13.4667C18.0937 14.2998 18.0715 14.9557 17.0089 15.0279C15.8892 15.1033 16.2635 14.2637 16.143 13.716C15.7877 12.1154 14.7314 11.2758 13.2026 11.3873C11.8037 11.4923 10.8775 12.5385 10.795 14.1095C10.7157 15.6215 11.496 16.5169 13.1359 16.8219C13.4753 16.8842 13.9004 16.717 14.1478 17.2056C13.6149 17.9108 12.8378 18.0026 12.048 18.0453C11.1725 18.0912 11.4865 18.7766 11.4326 19.2588C11.3882 19.6786 11.4738 19.9344 12.0004 19.9869C13.377 20.1181 15.369 19.1997 15.8258 17.8944C16.143 16.9761 16.6632 16.8547 17.453 16.7826C19.2642 16.6218 19.9461 15.7986 19.9905 13.9423C20.0064 13.3027 19.9969 12.6664 19.9969 12.0007ZM13.7164 15.0246C13.1803 14.9754 12.6601 14.9065 12.6601 14.1522C12.6601 13.6471 12.8822 13.2962 13.3675 13.2699C14.0431 13.2273 14.1922 13.7684 14.2842 14.1128C14.3222 14.7589 14.2334 15.0869 13.7164 15.0246Z" fill="#434851"/>
<path d="M8.81886 12.8567C7.55008 11.9843 5.91652 12.5025 5.09181 14.0636C4.95156 14.3547 4.82971 14.6549 4.72704 14.9623C4.54307 15.4641 4.25759 15.8609 3.6803 15.7002C3.103 15.5395 3.26794 15.0115 3.2616 14.5982C3.2616 13.3454 3.23305 12.0892 3.2616 10.8363C3.28697 9.80321 2.43372 9.68842 1.86594 9.61299C0.965104 9.51132 1.43455 10.3608 1.38063 10.7806C1.33272 11.4354 1.32636 12.0928 1.3616 12.7484C1.3616 13.5651 1.31719 14.3883 1.3616 15.2017C1.47896 16.9564 2.76043 18.0485 4.39716 17.5992C5.14598 17.3967 5.93953 17.4685 6.6429 17.8026C7.67696 18.2191 8.72053 18.3076 9.51669 17.2712C10.4207 16.1004 10.021 13.6799 8.81886 12.8567ZM7.64207 16.1922C7.19482 16.061 6.52554 16.0643 6.59532 15.3198C6.59856 15.0714 6.69498 14.8341 6.86424 14.6579C7.0335 14.4816 7.26235 14.3803 7.5025 14.3752C8.09565 14.5162 8.25742 14.9951 8.27328 15.5592C8.29549 15.9888 8.11786 16.3365 7.64207 16.1922Z" fill="#444951"/>
<path d="M9.37074 4.30961C9.37074 8.31092 7.50563 9.82617 3.78175 8.97015C0.828666 8.29124 0.429 5.24762 1.63434 2.67957C1.95154 2.00394 2.35438 2.49262 2.68426 2.62381C3.01414 2.755 3.61047 2.74844 3.37257 3.43719C3.28376 3.69301 3.2108 3.95212 3.12833 4.21122C2.81114 5.19515 2.58276 6.22827 3.58509 6.83503C4.58743 7.44178 5.82766 7.40243 6.91247 6.87111C7.58175 6.54313 7.44853 5.75271 7.48977 5.12299C7.531 4.49328 7.48977 3.9226 7.48977 3.32568C7.48977 2.66973 7.2487 1.92194 8.41598 1.91866C9.58326 1.91538 9.34536 2.64021 9.36756 3.31256C9.37391 3.65694 9.37074 3.98163 9.37074 4.30961Z" fill="#444952"/>
<path d="M18.8994 10.2919C19.4828 10.2919 19.9557 9.80292 19.9557 9.19974C19.9557 8.59655 19.4828 8.10758 18.8994 8.10758C18.316 8.10758 17.8431 8.59655 17.8431 9.19974C17.8431 9.80292 18.316 10.2919 18.8994 10.2919Z" fill="#444951"/>
<path d="M16.441 10.2919C17.0244 10.2919 17.4973 9.80292 17.4973 9.19974C17.4973 8.59655 17.0244 8.10758 16.441 8.10758C15.8577 8.10758 15.3848 8.59655 15.3848 9.19974C15.3848 9.80292 15.8577 10.2919 16.441 10.2919Z" fill="#444951"/>
<path d="M5.19017 2.18432C5.77353 2.18432 6.24643 1.69535 6.24643 1.09216C6.24643 0.488977 5.77353 0 5.19017 0C4.60681 0 4.13391 0.488977 4.13391 1.09216C4.13391 1.69535 4.60681 2.18432 5.19017 2.18432Z" fill="#444951"/>
</svg>
